<svg xmlns="http://www.w3.org/2000/svg" viewBox="0 0 800 800">
  <rect width="800" height="800" fill="none"/>
  <g filter="url(#glow)">
    <ellipse cx="400" cy="280" rx="170" ry="230" fill="#050005"/>
    <path d="M248 190 C235 360 245 560 145 760 C250 690 290 595 300 430 Z" fill="#030003"/>
    <path d="M552 190 C565 360 555 560 655 760 C550 690 510 595 500 430 Z" fill="#030003"/>
    <ellipse cx="400" cy="318" rx="95" ry="112" fill="#f7f0f6"/>
    <circle cx="365" cy="315" r="22" fill="#030003"/>
    <circle cx="435" cy="315" r="22" fill="#030003"/>
    <circle cx="365" cy="315" r="7" fill="#ff0037"/>
    <circle cx="435" cy="315" r="7" fill="#ff0037"/>
    <ellipse cx="400" cy="385" rx="23" ry="40" fill="#030003"/>
    <path d="M320 430 C300 545 292 680 400 735 C508 680 500 545 480 430 Z" fill="#f7f7f7"/>
    <path d="M330 482 C380 520 420 520 470 482" stroke="#cfd0d2" stroke-width="8" fill="none" opacity=".6"/>
  </g>
  <defs><filter id="glow"><feGaussianBlur stdDeviation="6" result="b"/><feMerge><feMergeNode in="b"/><feMergeNode in="SourceGraphic"/></feMerge></filter></defs>
</svg>
